# xmcd CD database file
#
# Track frame offsets:
#	150
#	31432
#	66125
#	106551
#	123752
#	150038
#	171248
#	206565
#	229181
#	259857
#
# Disc length: 3758 seconds
#
# Revision: 4
# Processed by: cddbd v1.5.2PL0 Copyright (c) Steve Scherf et al.
# Submitted via: CDex 1.51
#
DISCID=750eac0a
DTITLE=Quiet Earth Orchestra - Quiet Earth Orchestra
DYEAR=2008
DGENRE=New Age
TTITLE0=History Ends Here
TTITLE1=God
TTITLE2=Limitations
TTITLE3=Simple
TTITLE4=The Prophet
TTITLE5=Singularity
TTITLE6=Slow Down
TTITLE7=The Madness of Crowds
TTITLE8=Cicadas
TTITLE9=The Prophets Theme
EXTD=YEAR: 2008
EXTT0=
EXTT1=
EXTT2=
EXTT3=
EXTT4=
EXTT5=
EXTT6=
EXTT7=
EXTT8=
EXTT9=
PLAYORDER=
